<svg width="32" height="32" viewBox="0 0 32 32" fill="none" xmlns="http://www.w3.org/2000/svg">
  <defs>
    <!-- Ambient Radial Bloom -->
    <radialGradient id="heraFaviconAura" cx="16" cy="16" r="14" gradientUnits="userSpaceOnUse">
      <stop offset="0%" stop-color="#10b981" stop-opacity="0.3" />
      <stop offset="50%" stop-color="#06b6d4" stop-opacity="0.1" />
      <stop offset="100%" stop-color="#050507" stop-opacity="0" />
    </radialGradient>

    <!-- Enclave Perimeter Stroke Gradient -->
    <linearGradient id="heraFaviconStroke" x1="2" y1="2" x2="30" y2="30" gradientUnits="userSpaceOnUse">
      <stop offset="0%" stop-color="#ffffff" stop-opacity="0.4" />
      <stop offset="35%" stop-color="#10b981" stop-opacity="0.7" />
      <stop offset="70%" stop-color="#06b6d4" stop-opacity="0.5" />
      <stop offset="100%" stop-color="#ffffff" stop-opacity="0.15" />
    </linearGradient>

    <!-- Vertical Spines Laser Bus -->
    <linearGradient id="heraFaviconSpine" x1="16" y1="5" x2="16" y2="27" gradientUnits="userSpaceOnUse">
      <stop offset="0%" stop-color="#ffffff" />
      <stop offset="30%" stop-color="#a7f3d0" />
      <stop offset="60%" stop-color="#10b981" />
      <stop offset="100%" stop-color="#06b6d4" />
    </linearGradient>

    <!-- Crossbar Horizontal Laser Linkage -->
    <linearGradient id="heraFaviconBridge" x1="8.5" y1="16" x2="23.5" y2="16" gradientUnits="userSpaceOnUse">
      <stop offset="0%" stop-color="#10b981" />
      <stop offset="50%" stop-color="#ffffff" />
      <stop offset="100%" stop-color="#10b981" />
    </linearGradient>

    <!-- Central Nexus Radial Core -->
    <radialGradient id="heraFaviconNexus" cx="16" cy="16" r="4.5" gradientUnits="userSpaceOnUse">
      <stop offset="0%" stop-color="#ffffff" />
      <stop offset="30%" stop-color="#34d399" />
      <stop offset="70%" stop-color="#10b981" stop-opacity="0.5" />
      <stop offset="100%" stop-color="#10b981" stop-opacity="0" />
    </radialGradient>
  </defs>

  <!-- Ambient Backlight Halo -->
  <circle cx="16" cy="16" r="14" fill="url(#heraFaviconAura)" />

  <!-- Hardware Security Enclave Chassis -->
  <rect
    x="1.75"
    y="1.75"
    width="28.5"
    height="28.5"
    rx="7.5"
    fill="#08080a"
    stroke="url(#heraFaviconStroke)"
    stroke-width="1"
  />

  <!-- Precision Optical Registration Marks -->
  <path d="M 4 4.5 L 4 3.5 M 3.5 4 L 4.5 4" stroke="#ffffff" stroke-width="0.7" stroke-linecap="round" opacity="0.4" />
  <path d="M 28 4.5 L 28 3.5 M 27.5 4 L 28.5 4" stroke="#ffffff" stroke-width="0.7" stroke-linecap="round" opacity="0.4" />
  <path d="M 4 28.5 L 4 27.5 M 3.5 28 L 4.5 28" stroke="#06b6d4" stroke-width="0.7" stroke-linecap="round" opacity="0.5" />
  <path d="M 28 28.5 L 28 27.5 M 27.5 28 L 28.5 28" stroke="#06b6d4" stroke-width="0.7" stroke-linecap="round" opacity="0.5" />

  <!-- Merkle DAG Diagonal State Invariant Linkages -->
  <line x1="8.5" y1="8.67" x2="16" y2="16" stroke="#10b981" stroke-width="0.6" stroke-dasharray="1.2,1.8" stroke-opacity="0.3" />
  <line x1="23.5" y1="8.67" x2="16" y2="16" stroke="#10b981" stroke-width="0.6" stroke-dasharray="1.2,1.8" stroke-opacity="0.3" />
  <line x1="8.5" y1="23.33" x2="16" y2="16" stroke="#06b6d4" stroke-width="0.6" stroke-dasharray="1.2,1.8" stroke-opacity="0.3" />
  <line x1="23.5" y1="23.33" x2="16" y2="16" stroke="#06b6d4" stroke-width="0.6" stroke-dasharray="1.2,1.8" stroke-opacity="0.3" />

  <!-- Structural Laser Spine Bus Lines -->
  <line x1="8.5" y1="5" x2="8.5" y2="27" stroke="url(#heraFaviconSpine)" stroke-width="1.1" stroke-linecap="round" stroke-opacity="0.5" />
  <line x1="23.5" y1="5" x2="23.5" y2="27" stroke="url(#heraFaviconSpine)" stroke-width="1.1" stroke-linecap="round" stroke-opacity="0.5" />
  <line x1="8.5" y1="16" x2="23.5" y2="16" stroke="url(#heraFaviconBridge)" stroke-width="1.3" stroke-linecap="round" stroke-opacity="0.7" />

  <!-- Ambient Coordinate Lattice Matrix Dots -->
  <circle cx="4.5" cy="10" r="0.6" fill="#ffffff" opacity="0.14" />
  <circle cx="4.5" cy="16" r="0.6" fill="#ffffff" opacity="0.14" />
  <circle cx="4.5" cy="22" r="0.6" fill="#ffffff" opacity="0.14" />
  <circle cx="27.5" cy="10" r="0.6" fill="#ffffff" opacity="0.14" />
  <circle cx="27.5" cy="16" r="0.6" fill="#ffffff" opacity="0.14" />
  <circle cx="27.5" cy="22" r="0.6" fill="#ffffff" opacity="0.14" />

  <!-- ==================== HERA 'H' DOTTED GEOMETRIC PILLARS ==================== -->
  <!-- Left Pillar -->
  <circle cx="8.5" cy="5" r="1.65" fill="#ffffff" />
  <circle cx="8.5" cy="8.67" r="1.5" fill="#e4e4e7" />
  <circle cx="8.5" cy="12.33" r="1.55" fill="#a7f3d0" />
  <circle cx="8.5" cy="16" r="2.0" fill="#10b981" stroke="#ffffff" stroke-width="0.6" />
  <circle cx="8.5" cy="19.67" r="1.55" fill="#34d399" />
  <circle cx="8.5" cy="23.33" r="1.5" fill="#22d3ee" />
  <circle cx="8.5" cy="27" r="1.65" fill="#06b6d4" />

  <!-- Right Pillar -->
  <circle cx="23.5" cy="5" r="1.65" fill="#ffffff" />
  <circle cx="23.5" cy="8.67" r="1.5" fill="#e4e4e7" />
  <circle cx="23.5" cy="12.33" r="1.55" fill="#a7f3d0" />
  <circle cx="23.5" cy="16" r="2.0" fill="#10b981" stroke="#ffffff" stroke-width="0.6" />
  <circle cx="23.5" cy="19.67" r="1.55" fill="#34d399" />
  <circle cx="23.5" cy="23.33" r="1.5" fill="#22d3ee" />
  <circle cx="23.5" cy="27" r="1.65" fill="#06b6d4" />

  <!-- Crossbar Intermediate Nodes -->
  <circle cx="12.25" cy="16" r="1.35" fill="#34d399" />
  <circle cx="19.75" cy="16" r="1.35" fill="#34d399" />

  <!-- Central State Vault Cryptographic Nexus -->
  <circle cx="16" cy="16" r="3.8" fill="url(#heraFaviconNexus)" opacity="0.45" />
  <circle cx="16" cy="16" r="2.3" fill="#070709" stroke="#10b981" stroke-width="0.9" />
  <circle cx="16" cy="16" r="1.1" fill="#ffffff" />
</svg>
